<svg width="146" height="174" viewBox="0 0 146 174" fill="none" xmlns="http://www.w3.org/2000/svg">
<path d="M135.625 141.828C135.832 146.376 128.803 154.853 124.048 157.334C114.744 162.089 104.82 160.849 100.685 164.57C98.6179 166.431 78.977 174.287 59.9564 173.874C22.5353 172.84 0 161.469 0 148.444C0 135.419 30.3917 125.082 67.8127 125.288C105.234 125.495 134.798 128.803 135.625 141.828Z" fill="black" fill-opacity="0.1"/>
<path opacity="0.6" d="M10.7509 136.246C3.92827 144.102 8.89018 149.271 11.9914 151.958C18.1938 157.541 25.2231 159.815 34.7334 162.296C46.518 165.397 60.1632 166.017 75.4624 165.81C85.3862 165.604 88.0739 163.536 93.6561 157.954C100.892 150.718 104.2 155.887 115.571 155.473C126.115 155.06 127.976 150.511 130.043 146.583C131.904 143.068 129.837 134.798 126.529 132.524C124.255 131.077 110.403 133.765 107.922 133.765C101.306 133.765 94.8966 134.178 88.4874 135.005C79.5973 136.246 71.1207 139.14 62.0239 137.279C47.1382 134.385 24.3961 128.803 10.5441 137.9" fill="black" fill-opacity="0.1"/>
<path d="M99.2382 74.0151C99.2382 87.0401 98.618 94.6897 108.749 103.166C116.191 109.369 109.989 118.259 100.479 115.364C95.7235 113.917 85.1795 107.715 83.5255 102.96C80.6311 94.483 90.7616 93.656 94.4831 89.3143" fill="#231F20"/>
<path d="M100.685 80.2177C109.575 62.6442 114.744 52.1002 113.71 45.6911C112.47 38.2482 96.3435 28.7379 88.2804 25.0164C80.6308 21.295 57.682 8.89025 43.83 17.5736C27.7038 27.7041 19.8475 54.9946 13.2316 78.1502C6.40898 101.926 5.78874 115.365 7.44271 131.284C8.88993 144.722 15.0923 148.651 21.5014 152.372C27.9106 156.093 40.5221 160.642 49.6189 162.296C58.7157 163.95 66.1586 166.224 72.361 166.844C78.5634 167.465 80.8376 163.743 85.5927 161.676C89.7276 160.022 94.6896 152.992 86.6265 148.857C83.5253 147.203 84.3523 147.824 82.905 145.136C81.4578 142.448 88.0737 139.14 93.4491 140.174C99.0312 141.208 101.719 149.684 108.335 151.959C119.706 155.68 124.461 149.891 123.634 144.309C121.98 134.799 102.959 126.115 102.959 126.115L91.7951 128.183L87.6602 116.191C87.4534 116.398 91.5884 98.2046 100.685 80.2177Z" fill="white"/>
<path d="M50.4461 74.2221C59.8091 74.2221 67.3993 66.6319 67.3993 57.2689C67.3993 47.9059 59.8091 40.3157 50.4461 40.3157C41.0831 40.3157 33.4929 47.9059 33.4929 57.2689C33.4929 66.6319 41.0831 74.2221 50.4461 74.2221Z" fill="#231F20"/>
<path d="M52.9271 64.0914C55.4391 64.0914 57.4755 62.055 57.4755 59.543C57.4755 57.031 55.4391 54.9946 52.9271 54.9946C50.4151 54.9946 48.3787 57.031 48.3787 59.543C48.3787 62.055 50.4151 64.0914 52.9271 64.0914Z" stroke="white" stroke-width="1.5" stroke-miterlimit="10"/>
<path d="M90.9683 82.0783C98.9611 82.0783 105.441 75.5989 105.441 67.6061C105.441 59.6133 98.9611 53.1339 90.9683 53.1339C82.9755 53.1339 76.4961 59.6133 76.4961 67.6061C76.4961 75.5989 82.9755 82.0783 90.9683 82.0783Z" fill="#A7A9AC"/>
<path d="M93.0357 72.1545C94.2917 72.1545 95.3099 71.1363 95.3099 69.8803C95.3099 68.6243 94.2917 67.606 93.0357 67.606C91.7797 67.606 90.7615 68.6243 90.7615 69.8803C90.7615 71.1363 91.7797 72.1545 93.0357 72.1545Z" fill="#231F20"/>
<path opacity="0.6" d="M47.9651 134.385C47.5516 139.967 66.5723 148.237 73.6016 148.65C78.5636 148.857 107.921 141.828 121.98 136.659C125.288 135.419 130.457 135.419 130.043 132.111C129.216 126.942 114.744 128.183 109.575 128.596C97.3774 129.423 85.5929 132.318 73.8084 133.145C65.5385 133.558 57.6822 132.524 50.2393 135.625" fill="#D1D3D4"/>
<path d="M88.2805 153.199C92.8289 151.959 97.7908 148.237 102.753 150.718C102.959 148.444 102.339 141.208 100.685 139.347C97.9976 136.246 89.3143 139.761 84.7658 139.761C84.3523 144.309 86.4198 148.857 88.9008 152.372" fill="#F6F8F6"/>
<path d="M66.5724 131.284C75.707 131.284 83.1121 123.971 83.1121 114.951C83.1121 105.93 75.707 98.618 66.5724 98.618C57.4378 98.618 50.0327 105.93 50.0327 114.951C50.0327 123.971 57.4378 131.284 66.5724 131.284Z" fill="#939598"/>
<path d="M62.4373 139.347C52.3068 145.343 54.581 158.988 63.6778 164.57C68.8465 167.671 77.1163 167.465 82.4917 165.811C85.3862 164.777 89.1076 162.089 90.7615 159.401C93.4492 154.853 92.4155 149.684 90.9683 145.756C88.9008 140.381 83.5254 139.554 78.5635 138.727C74.4286 138.107 59.9564 134.799 58.9227 142.448" fill="#060808"/>
<path d="M104.614 130.457C100.685 133.145 98.4112 136.246 98.618 141.208C98.8247 146.583 100.065 150.098 104.614 152.992C111.643 157.334 125.288 157.334 130.043 148.857C133.972 141.621 129.01 130.871 121.98 127.976C116.605 125.702 106.681 126.322 102.96 131.904" fill="#070708"/>
<path d="M61.1969 130.457C61.6104 130.25 77.3231 126.115 77.3231 126.115C77.3231 126.115 75.8759 139.554 73.3949 141.621C70.2938 144.102 54.5811 134.592 54.5811 134.592L61.1969 130.457Z" fill="#FDCE30"/>
<path d="M48.9988 137.279L62.8508 143.689C62.8508 143.689 69.8801 147.41 73.6016 147.203C77.323 146.996 80.2174 146.169 80.2174 146.169L120.946 136.039C120.946 136.039 127.562 134.798 129.63 133.144C131.697 131.284 135.005 126.322 139.14 113.917C143.275 101.512 143.895 95.1032 143.895 95.1032L143.482 90.9683L137.9 88.4873L93.6559 95.7234L80.2174 107.921C80.2174 107.921 76.9095 137.486 73.6016 139.14C70.2936 140.794 58.0956 133.558 58.0956 133.558L48.9988 137.279Z" fill="#FECD30"/>
<path opacity="0.9" d="M86.2131 100.272C83.5254 104.407 83.5254 109.782 82.9051 114.331C82.0781 119.086 80.4242 124.254 78.977 128.803C77.7365 132.524 77.1162 136.246 75.8758 139.76C75.2555 141.621 71.9476 145.549 73.8083 147.203C73.8083 147.617 82.9051 145.549 87.867 141.414C92.002 137.9 99.2381 121.567 107.094 116.605C110.609 114.331 117.432 105.647 121.36 104.407C124.668 103.373 144.309 96.1369 144.309 92.6222C144.309 85.7996 131.077 92.2087 126.942 93.0357C118.052 94.6897 108.955 95.7234 100.065 97.9976C96.7571 98.8246 93.4492 99.2381 90.348 100.272C88.694 100.685 87.2468 101.719 85.7996 101.099" fill="#F4BC32"/>
<path d="M72.9814 147.203C74.8422 147.824 77.7366 146.376 78.9771 145.136C81.0445 143.068 80.8378 139.554 81.2513 136.866C82.0783 130.043 83.7322 123.221 85.593 116.605C87.2469 110.609 88.0739 104.407 94.8965 102.133C96.964 101.513 99.4449 101.513 101.512 100.892C103.993 100.272 106.681 99.6518 109.162 99.2383C114.331 98.4113 119.499 97.1709 124.668 96.1371C128.596 95.5169 132.318 94.8966 136.039 93.8629C137.693 93.4494 141.828 92.6224 143.482 92.2089C143.895 90.1415 133.765 92.2089 132.938 92.4157C129.01 93.0359 124.875 93.8629 120.947 94.6899C115.985 95.7236 111.023 96.3439 106.061 97.1709C101.512 97.9978 96.5505 98.4113 92.2088 99.6518C89.1076 100.479 85.7997 101.513 84.5592 104.82C83.3187 108.955 82.4918 113.09 81.2513 117.225C79.8041 122.807 78.1501 128.39 77.1164 134.178C76.4961 137.073 76.0826 139.967 75.4624 142.862C75.2556 143.482 75.4624 144.516 75.2556 145.136C74.8422 146.997 72.9814 147.203 72.9814 147.203Z" fill="#B86831"/>
<path d="M49.6191 137.486C56.4418 141.001 63.8846 145.549 71.3275 147.203C75.6691 148.03 77.9434 144.929 77.5299 141.001C75.4624 140.587 74.0152 141.621 72.1545 141.828C69.6735 142.035 67.3993 140.794 65.1251 139.967C62.6441 138.934 59.9564 137.9 57.2687 136.866C54.9945 135.832 52.1001 135.626 50.4461 137.693" fill="#CE9637"/>
<path d="M22.3286 90.3483C18.4004 98.6182 14.4723 117.846 26.4635 129.217C31.8389 134.385 35.9739 135.626 42.383 136.866C51.0663 138.727 65.7453 138.107 68.8465 127.769C70.2937 122.601 67.3993 119.293 62.4373 118.673C55.2012 117.846 48.1719 119.293 41.1425 117.432C34.3199 115.778 31.2187 107.922 31.8389 92.8293C32.0457 90.1416 33.2862 83.9392 29.5647 83.319C25.4298 82.9055 23.7758 87.2472 22.3286 90.3483Z" fill="#060808"/>
<path d="M73.1881 140.588C72.5678 141.828 71.1206 141.621 70.0869 141.621C69.2599 141.621 74.8421 144.309 76.7028 145.136C78.7702 144.309 83.7321 104.407 87.8671 101.719C89.7278 100.479 93.2425 100.065 93.2425 100.065L133.765 92.2089C133.765 92.2089 142.448 90.1415 143.068 92.4157C143.482 94.2764 143.068 96.3439 142.862 98.4113C142.241 103.166 141.001 107.922 141.001 107.922C141.001 107.922 142.241 104.614 143.068 100.892C143.895 97.5843 144.722 93.2427 144.929 92.4157C145.342 89.3145 144.309 88.074 142.448 87.8673C140.794 87.6605 136.866 88.2808 136.866 88.2808L91.3817 95.9304C91.3817 95.9304 86.0063 96.7573 83.5254 98.4113C82.2849 99.445 81.6647 101.099 80.6309 106.268C77.9432 118.466 73.1881 140.588 73.1881 140.588Z" fill="#CE9637"/>
<path d="M66.7791 87.4537C68.8465 87.8672 71.9477 87.4537 72.1544 85.3862C72.3612 83.939 71.741 82.9053 70.5005 82.6985C71.5342 82.9053 72.9814 83.112 73.6017 81.6648C74.4287 79.8041 72.9814 78.3569 70.7072 78.1501" stroke="black" stroke-miterlimit="10" stroke-linecap="round" stroke-linejoin="round"/>
<path opacity="0.3" d="M83.7323 144.722C83.939 144.309 95.5168 141.208 99.8585 139.967C103.373 138.934 106.681 138.107 109.989 137.073C112.883 136.246 120.947 133.765 123.634 132.731C125.288 131.904 126.942 131.077 128.803 129.423C130.87 127.563 131.904 125.702 133.145 123.428C133.972 121.774 134.799 120.12 135.212 120.12C136.659 119.913 134.799 123.014 134.385 124.461C133.972 125.702 133.351 126.736 132.731 127.976C132.111 129.216 130.87 131.491 129.63 132.524C128.183 133.765 127.149 134.178 125.288 134.799C119.913 136.246 114.744 137.693 109.369 138.934C104.407 140.174 99.6517 141.208 94.6898 142.655C92.8291 143.275 90.3481 143.689 88.2807 144.309C87.6604 144.309 82.9053 145.756 83.7323 144.722Z" fill="#F8D761"/>
<path d="M54.5808 62.8509C55.8369 62.8509 56.8551 61.8327 56.8551 60.5767C56.8551 59.3207 55.8369 58.3025 54.5808 58.3025C53.3248 58.3025 52.3066 59.3207 52.3066 60.5767C52.3066 61.8327 53.3248 62.8509 54.5808 62.8509Z" fill="white"/>
<path d="M38.0412 27.704C45.6914 27.704 51.8932 21.5022 51.8932 13.852C51.8932 6.20175 45.6914 0 38.0412 0C30.391 0 24.1892 6.20175 24.1892 13.852C24.1892 21.5022 30.391 27.704 38.0412 27.704Z" fill="#090A0A"/>
<path d="M127.562 40.9357C129.837 46.9313 126.735 53.7539 120.74 55.8214C117.845 56.8551 112.263 57.8888 111.643 56.2349C111.436 55.6146 109.575 50.8595 108.335 47.7583C107.094 44.6571 105.854 41.3491 105.854 40.1087C105.854 37.6277 109.575 34.94 112.47 33.9063C118.672 31.8388 125.288 34.94 127.562 40.9357Z" fill="#090A0A"/>
</svg>
